<svg width="188" height="316" viewBox="0 0 188 316" fill="none" xmlns="http://www.w3.org/2000/svg">
<g clip-path="url(#clip0)">
<path d="M106.438 314.679H22.5909L0.535645 289.745L1.05969 289.281L22.8948 313.981H105.25L81.5493 271.18L172.384 225.089L156.596 165.97L186.383 143.066L166.441 28.265L130.369 64.3367L129.873 63.8371L166.906 26.8047L187.141 143.363L186.976 143.492L157.392 166.239L173.191 225.456L82.5136 271.477L106.438 314.679ZM91.6249 305.945H26.5108L12.1869 289.742L12.7109 289.277L26.8287 305.247H90.4406L69.5312 267.481L162.112 220.495L146.664 162.595L176.88 139.362L160.722 46.3341L132.196 74.8595L131.7 74.3669L161.18 44.8877L177.641 139.649L147.46 162.857L162.93 220.851L162.678 220.98L70.492 267.788L91.6249 305.945Z" stroke="#583BEB" stroke-width="1.5"/>
<path d="M59.225 289.875H-24.6219L-92 213.714L119.714 2L119.829 2.66379L139.952 118.544L66.0621 175.35L112.877 151.531L125.974 200.641L35.3077 246.659L59.225 289.875ZM-24.311 289.176H58.0407L34.3435 246.362L125.178 200.274L112.429 152.544L63.0191 177.68L62.6488 177.094L109.582 141.008L139.18 118.25L119.239 3.44636L-91.0427 213.731L-24.311 289.176Z" stroke="#583BEB" stroke-width="1.5"/>
</g>
<defs>
<clipPath id="clip0">
<rect width="188" height="316" fill="white"/>
</clipPath>
</defs>
</svg>
